<svg width="906" height="561" viewBox="0 0 906 561" fill="none" xmlns="http://www.w3.org/2000/svg">
<g clip-path="url(#clip0_305_119)">
<path d="M419.1 555.6H498.3" stroke="#3B6B7D" stroke-width="10" stroke-miterlimit="10" stroke-linecap="round" stroke-linejoin="round"/>
<path d="M384.3 555.6H397" stroke="#3B6B7D" stroke-width="10" stroke-miterlimit="10" stroke-linecap="round" stroke-linejoin="round"/>
<g opacity="0.23">
<path opacity="0.23" d="M573.9 175.4V206.4H512" stroke="white" stroke-width="6" stroke-miterlimit="10" stroke-linecap="round" stroke-linejoin="round"/>
<path opacity="0.23" d="M635.8 206.4H573.9V175.4" stroke="white" stroke-width="6" stroke-miterlimit="10" stroke-linecap="round" stroke-linejoin="round"/>
<path opacity="0.23" d="M604.9 206.4H543V237.3H604.9V206.4Z" stroke="white" stroke-width="6" stroke-miterlimit="10" stroke-linecap="round" stroke-linejoin="round"/>
<path opacity="0.23" d="M591.5 268.201H573.9V237.301H635.8" stroke="white" stroke-width="6" stroke-miterlimit="10" stroke-linecap="round" stroke-linejoin="round"/>
<path opacity="0.23" d="M512 237.301H573.9V268.201H523.7" stroke="white" stroke-width="6" stroke-miterlimit="10" stroke-linecap="round" stroke-linejoin="round"/>
<path opacity="0.23" d="M491 206.4H543V237.3H512" stroke="white" stroke-width="6" stroke-miterlimit="10" stroke-linecap="round" stroke-linejoin="round"/>
<path opacity="0.23" d="M649.5 237.3H604.8V206.4H626.3" stroke="white" stroke-width="6" stroke-miterlimit="10" stroke-linecap="round" stroke-linejoin="round"/>
</g>
<g opacity="0.23">
<path opacity="0.23" d="M827.1 348.6V379.5H765.3" stroke="white" stroke-width="6" stroke-miterlimit="10" stroke-linecap="round" stroke-linejoin="round"/>
<path opacity="0.23" d="M889.001 379.5H827.101V348.6" stroke="white" stroke-width="6" stroke-miterlimit="10" stroke-linecap="round" stroke-linejoin="round"/>
<path opacity="0.23" d="M858.1 379.5H796.2V410.4H858.1V379.5Z" stroke="white" stroke-width="6" stroke-miterlimit="10" stroke-linecap="round" stroke-linejoin="round"/>
<path opacity="0.23" d="M844.701 441.399H827.101V410.399H889.001" stroke="white" stroke-width="6" stroke-miterlimit="10" stroke-linecap="round" stroke-linejoin="round"/>
<path opacity="0.23" d="M765.3 410.399H827.1V441.399H777" stroke="white" stroke-width="6" stroke-miterlimit="10" stroke-linecap="round" stroke-linejoin="round"/>
<path opacity="0.23" d="M744.2 379.5H796.2V410.4H765.3" stroke="white" stroke-width="6" stroke-miterlimit="10" stroke-linecap="round" stroke-linejoin="round"/>
<path opacity="0.23" d="M902.7 410.4H858V379.5H879.5" stroke="white" stroke-width="6" stroke-miterlimit="10" stroke-linecap="round" stroke-linejoin="round"/>
</g>
<g opacity="0.23">
<path opacity="0.23" d="M86.1 303.6V334.5H24.2998" stroke="white" stroke-width="6" stroke-miterlimit="10" stroke-linecap="round" stroke-linejoin="round"/>
<path opacity="0.23" d="M148.001 334.5H86.1011V303.6" stroke="white" stroke-width="6" stroke-miterlimit="10" stroke-linecap="round" stroke-linejoin="round"/>
<path opacity="0.23" d="M117.1 334.5H55.2002V365.4H117.1V334.5Z" stroke="white" stroke-width="6" stroke-miterlimit="10" stroke-linecap="round" stroke-linejoin="round"/>
<path opacity="0.23" d="M103.701 396.4H86.1011V365.5H148.001" stroke="white" stroke-width="6" stroke-miterlimit="10" stroke-linecap="round" stroke-linejoin="round"/>
<path opacity="0.23" d="M24.2998 365.5H86.1V396.4H35.9998" stroke="white" stroke-width="6" stroke-miterlimit="10" stroke-linecap="round" stroke-linejoin="round"/>
<path opacity="0.23" d="M3.2002 334.5H55.2002V365.5H24.3002" stroke="white" stroke-width="6" stroke-miterlimit="10" stroke-linecap="round" stroke-linejoin="round"/>
<path opacity="0.23" d="M161.7 365.5H117V334.5H138.5" stroke="white" stroke-width="6" stroke-miterlimit="10" stroke-linecap="round" stroke-linejoin="round"/>
</g>
<path d="M585 507H869.9" stroke="#3B6B7D" stroke-width="10" stroke-miterlimit="10" stroke-linecap="round" stroke-linejoin="round"/>
<path d="M115.3 507H515" stroke="#3B6B7D" stroke-width="10" stroke-miterlimit="10" stroke-linecap="round" stroke-linejoin="round"/>
<path d="M86 507H92.5" stroke="#3B6B7D" stroke-width="10" stroke-miterlimit="10" stroke-linecap="round" stroke-linejoin="round"/>
<path d="M42.7998 507H66.9998" stroke="#3B6B7D" stroke-width="10" stroke-miterlimit="10" stroke-linecap="round" stroke-linejoin="round"/>
<path d="M442.2 341.5C431.9 341.5 423 347.6 419 356.3L413.5 355.1C416.3 350.2 417.9 344.6 417.9 338.6C417.9 320.2 403 305.2 384.5 305.2C372.7 305.2 362.3 311.3 356.4 320.6C350.5 311.4 340.1 305.2 328.3 305.2C320.7 305.2 313.7 307.7 308.1 312C303.5 295.1 288 282.7 269.7 282.7C252.2 282.7 237.4 294 232 309.6C227 306.7 221.2 305 215 305C196.5 305 181.5 320 181.5 338.5V338.6C180.7 338.5 180 338.5 179.2 338.5C163.5 338.5 150.7 351.3 150.7 367V417.1H467.9V367C467.8 353 456.4 341.5 442.2 341.5Z" fill="#F2CFB1"/>
<g opacity="0.58">
<path opacity="0.58" d="M442.2 341.5C431.9 341.5 423 347.6 419 356.3L417.8 356C417.4 361.1 415.9 365.9 413.5 370.1L419 371.3C423.1 362.5 432 356.5 442.2 356.5C456.4 356.5 467.8 368 467.8 382.1V367.1C467.8 353 456.4 341.5 442.2 341.5Z" fill="#F2CFB1"/>
<path opacity="0.58" d="M179.2 353.6C180 353.6 180.7 353.6 181.5 353.7V353.6C181.5 335.1 196.5 320.1 215 320.1C221.2 320.1 227 321.8 232 324.7C237.4 309 252.2 297.8 269.7 297.8C288.1 297.8 303.5 310.2 308.1 327.1C313.7 322.8 320.7 320.3 328.3 320.3C340.1 320.3 350.5 326.4 356.4 335.7C362.3 326.5 372.7 320.3 384.5 320.3C400.3 320.3 413.6 331.3 417 346.1C417.6 343.7 417.9 341.2 417.9 338.6C417.9 320.2 403 305.2 384.5 305.2C372.7 305.2 362.3 311.3 356.4 320.6C350.5 311.4 340.1 305.2 328.3 305.2C320.7 305.2 313.7 307.7 308.1 312C303.5 295.1 288 282.7 269.7 282.7C252.2 282.7 237.4 294 232 309.6C227 306.7 221.2 305 215 305C196.5 305 181.5 320 181.5 338.5V338.6C180.7 338.5 180 338.5 179.2 338.5C163.5 338.5 150.7 351.3 150.7 367V382C150.7 366.4 163.4 353.6 179.2 353.6Z" fill="#F2CFB1"/>
</g>
<path d="M442.2 341.5C431.9 341.5 423 347.6 419 356.3L413.5 355.1C416.3 350.2 417.9 344.6 417.9 338.6C417.9 320.2 403 305.2 384.5 305.2C372.7 305.2 362.3 311.3 356.4 320.6C350.5 311.4 340.1 305.2 328.3 305.2C320.7 305.2 313.7 307.7 308.1 312C303.5 295.1 288 282.7 269.7 282.7C252.2 282.7 237.4 294 232 309.6C227 306.7 221.2 305 215 305C196.5 305 181.5 320 181.5 338.5V338.6C180.7 338.5 180 338.5 179.2 338.5C163.5 338.5 150.7 351.3 150.7 367V417.1H467.9V367C467.8 353 456.4 341.5 442.2 341.5Z" stroke="#3B6B7D" stroke-width="10" stroke-miterlimit="10" stroke-linecap="round" stroke-linejoin="round"/>
<path d="M482 353H110V377C115.5 377 120 381.5 120 387V437C120 465.7 143 489 171.7 489H419.7C448.3 489 472 465.6 472 437V387C472 381.5 476.5 377 482 377V353Z" fill="#EAEAEA"/>
<path d="M120 387V390.5H472V387C472 381.5 476.5 377 482 377V353H110V377C115.5 377 120 381.5 120 387Z" fill="#C6C6C6"/>
<path d="M482 353H110V377C115.5 377 120 381.5 120 387V437C120 465.7 143 489 171.7 489H419.7C448.3 489 472 465.6 472 437V387C472 381.5 476.5 377 482 377V353Z" stroke="#3B6B7D" stroke-width="10" stroke-miterlimit="10" stroke-linecap="round" stroke-linejoin="round"/>
<path d="M482 353H110V377H482V353Z" fill="#D8D8D8"/>
<path d="M416 377H397.5" stroke="#3B6B7D" stroke-width="10" stroke-miterlimit="10" stroke-linecap="round" stroke-linejoin="round"/>
<path d="M380.1 377H110V353H482V377H430" stroke="#3B6B7D" stroke-width="10" stroke-miterlimit="10" stroke-linecap="round" stroke-linejoin="round"/>
<path d="M433 498C433 503 429 507 424 507H167C162 507 158 503 158 498C158 493 162 489 167 489H424C429 489 433 493 433 498Z" fill="#C6C6C6"/>
<path d="M433 498C433 503 429 507 424 507H167C162 507 158 503 158 498C158 493 162 489 167 489H424C429 489 433 493 433 498Z" stroke="#3B6B7D" stroke-width="10" stroke-miterlimit="10" stroke-linecap="round" stroke-linejoin="round"/>
<path d="M236.6 58.2C227.7 42.7 210.9 32.3 191.7 32.3C163.1 32.3 139.9 55.5 139.9 84.1V350.1" stroke="#3B6B7D" stroke-width="12" stroke-miterlimit="10" stroke-linecap="round" stroke-linejoin="round"/>
<path d="M285 85.4C284.2 75 278.4 64.5 266.4 57.4C263.7 55.8 260.6 54.8 257.4 54.5C226.6 51.9 210.4 80.8 221.6 103.1C223.6 107.1 226.2 110.4 229.4 113.2L285 85.4Z" fill="#87D1E8"/>
<path d="M285 85.4C284.2 75 278.4 64.5 266.4 57.4C263.7 55.8 260.6 54.8 257.4 54.5C226.6 51.9 210.4 80.8 221.6 103.1C223.6 107.1 226.2 110.4 229.4 113.2L285 85.4Z" stroke="#3B6B7D" stroke-width="10" stroke-miterlimit="10" stroke-linecap="round" stroke-linejoin="round"/>
<path d="M294.8 244.299C300.985 244.299 306 239.285 306 233.099C306 226.914 300.985 221.899 294.8 221.899C288.614 221.899 283.6 226.914 283.6 233.099C283.6 239.285 288.614 244.299 294.8 244.299Z" fill="#F2CFB1"/>
<path d="M294.8 244.299C300.985 244.299 306 239.285 306 233.099C306 226.914 300.985 221.899 294.8 221.899C288.614 221.899 283.6 226.914 283.6 233.099C283.6 239.285 288.614 244.299 294.8 244.299Z" stroke="#3B6B7D" stroke-width="10" stroke-miterlimit="10" stroke-linecap="round" stroke-linejoin="round"/>
<path d="M359.8 265.2C370.956 265.2 380 256.156 380 245C380 233.844 370.956 224.8 359.8 224.8C348.643 224.8 339.6 233.844 339.6 245C339.6 256.156 348.643 265.2 359.8 265.2Z" fill="#F2CFB1"/>
<path d="M359.8 265.2C370.956 265.2 380 256.156 380 245C380 233.844 370.956 224.8 359.8 224.8C348.643 224.8 339.6 233.844 339.6 245C339.6 256.156 348.643 265.2 359.8 265.2Z" stroke="#3B6B7D" stroke-width="10" stroke-miterlimit="10" stroke-linecap="round" stroke-linejoin="round"/>
<path d="M162 281H142.1" stroke="#3B6B7D" stroke-width="13" stroke-miterlimit="10" stroke-linecap="round" stroke-linejoin="round"/>
<path d="M173.7 289H158.3V273H173.7C178.1 273 181.7 276.6 181.7 281C181.7 285.4 178.1 289 173.7 289Z" stroke="#3B6B7D" stroke-width="10" stroke-miterlimit="10" stroke-linecap="round" stroke-linejoin="round"/>
<path d="M173.7 289H158.3V273H173.7C178.1 273 181.7 276.6 181.7 281C181.7 285.4 178.1 289 173.7 289Z" fill="#3B6B7D"/>
<path d="M265.9 162.2L252.8 116" stroke="#3B6B7D" stroke-width="4" stroke-miterlimit="10" stroke-linecap="round" stroke-linejoin="round"/>
<path d="M280.4 101.399L309.2 135.799" stroke="#3B6B7D" stroke-width="4" stroke-miterlimit="10" stroke-linecap="round" stroke-linejoin="round"/>
<path d="M288.6 145.7L299.9 165.9" stroke="#3B6B7D" stroke-width="4" stroke-miterlimit="10" stroke-linecap="round" stroke-linejoin="round"/>
<path d="M268 109L281.4 132.9" stroke="#3B6B7D" stroke-width="4" stroke-miterlimit="10" stroke-linecap="round" stroke-linejoin="round"/>
<path d="M799.7 304H659.7V359H799.7V304Z" fill="#EF9E9D"/>
<path opacity="0.39" d="M799.7 304H659.7V316.5H799.7V304Z" fill="#EF9E9D"/>
<path d="M799.7 359H659.7V414H799.7V359Z" fill="#EF9E9D"/>
<path opacity="0.39" d="M799.7 358.8H659.7V371.3H799.7V358.8Z" fill="#EF9E9D"/>
<path d="M799.7 414H659.7V469H799.7V414Z" fill="#EF9E9D"/>
<path opacity="0.39" d="M799.7 414.8H659.7V427.3H799.7V414.8Z" fill="#EF9E9D"/>
<path d="M799.7 304H659.7V469H799.7V304Z" stroke="#3B6B7D" stroke-width="10" stroke-miterlimit="10" stroke-linecap="round" stroke-linejoin="round"/>
<path d="M799.7 304H659.7V359H799.7V304Z" stroke="#3B6B7D" stroke-width="10" stroke-miterlimit="10" stroke-linecap="round" stroke-linejoin="round"/>
<path d="M799.7 359H659.7V414H799.7V359Z" stroke="#3B6B7D" stroke-width="10" stroke-miterlimit="10" stroke-linecap="round" stroke-linejoin="round"/>
<path d="M799.7 414H659.7V469H799.7V414Z" stroke="#3B6B7D" stroke-width="10" stroke-miterlimit="10" stroke-linecap="round" stroke-linejoin="round"/>
<path d="M711.7 322H747.7" stroke="#3B6B7D" stroke-width="10" stroke-miterlimit="10" stroke-linecap="round" stroke-linejoin="round"/>
<path d="M711.7 377H747.7" stroke="#3B6B7D" stroke-width="10" stroke-miterlimit="10" stroke-linecap="round" stroke-linejoin="round"/>
<path d="M711.7 432H747.7" stroke="#3B6B7D" stroke-width="10" stroke-miterlimit="10" stroke-linecap="round" stroke-linejoin="round"/>
<path d="M681.9 507H668.7L683.9 469H709.9L681.9 507Z" fill="#3B6B7D"/>
<path d="M681.9 507H668.7L683.9 469H709.9L681.9 507Z" stroke="#3B6B7D" stroke-width="10" stroke-miterlimit="10" stroke-linecap="round" stroke-linejoin="round"/>
<path d="M780.9 507H794.1L778.9 469H752.9L780.9 507Z" stroke="#3B6B7D" stroke-width="10" stroke-miterlimit="10" stroke-linecap="round" stroke-linejoin="round"/>
<path d="M780.9 507H794.1L778.9 469H752.9L780.9 507Z" fill="#3B6B7D"/>
<path d="M736.7 229H722.7V271.7H736.7V229Z" fill="#87D1E8"/>
<path d="M736.7 229H722.7V271.7H736.7V229Z" stroke="#3B6B7D" stroke-width="10" stroke-miterlimit="10" stroke-linecap="round" stroke-linejoin="round"/>
<path d="M729.7 302C739.641 302 747.7 293.941 747.7 284C747.7 274.059 739.641 266 729.7 266C719.759 266 711.7 274.059 711.7 284C711.7 293.941 719.759 302 729.7 302Z" fill="#87D1E8"/>
<path d="M729.7 302C739.641 302 747.7 293.941 747.7 284C747.7 274.059 739.641 266 729.7 266C719.759 266 711.7 274.059 711.7 284C711.7 293.941 719.759 302 729.7 302Z" stroke="#3B6B7D" stroke-width="10" stroke-miterlimit="10" stroke-linecap="round" stroke-linejoin="round"/>
<path d="M744.2 273.3L756.6 260.9" stroke="#3B6B7D" stroke-width="10" stroke-miterlimit="10" stroke-linecap="round" stroke-linejoin="round"/>
<path d="M752.9 253.5L763.9 264.5" stroke="#3B6B7D" stroke-width="10" stroke-miterlimit="10" stroke-linecap="round" stroke-linejoin="round"/>
<path d="M745.3 239.5H714C710.3 239.5 707.8 235.8 709.1 232.4L713.6 220.3C715.9 214.2 722.4 210 729.7 210C737 210 743.4 214.1 745.8 220.3L750.3 232.4C751.6 235.8 749 239.5 745.3 239.5Z" fill="#87D1E8"/>
<path d="M745.3 239.5H714C710.3 239.5 707.8 235.8 709.1 232.4L713.6 220.3C715.9 214.2 722.4 210 729.7 210C737 210 743.4 214.1 745.8 220.3L750.3 232.4C751.6 235.8 749 239.5 745.3 239.5Z" stroke="#3B6B7D" stroke-width="10" stroke-miterlimit="10" stroke-linecap="round" stroke-linejoin="round"/>
<path d="M812.7 284H646.7V304H812.7V284Z" fill="#DD8A8A"/>
<path d="M812.7 284H646.7V304H812.7V284Z" stroke="#3B6B7D" stroke-width="10" stroke-miterlimit="10" stroke-linecap="round" stroke-linejoin="round"/>
<path d="M809.7 5H649.7V197H809.7V5Z" fill="#BBEAF2"/>
<path opacity="0.52" d="M809.7 183H649.7V197H809.7V183Z" fill="#92D7E7"/>
<path opacity="0.48" d="M809.7 5H649.7V19.1H809.7V5Z" fill="#92D7E7"/>
<path d="M809.7 5H649.7V197H809.7V5Z" stroke="#3B6B7D" stroke-width="10" stroke-miterlimit="10" stroke-linecap="round" stroke-linejoin="round"/>
<path d="M626 197H833.3" stroke="#3B6B7D" stroke-width="10" stroke-miterlimit="10" stroke-linecap="round" stroke-linejoin="round"/>
<path d="M791.9 138.7H767.1V197H791.9V138.7Z" fill="#D3B379"/>
<path d="M791.9 138.7H767.1V197H791.9V138.7Z" stroke="#3B6B7D" stroke-width="10" stroke-miterlimit="10" stroke-linecap="round" stroke-linejoin="round"/>
<path d="M780.5 114H778.5C775 114 772.1 116.9 772.1 120.4V138.6H786.9V120.4C786.9 116.9 784 114 780.5 114Z" fill="#D0EDF5"/>
<path d="M780.5 114H778.5C775 114 772.1 116.9 772.1 120.4V138.6H786.9V120.4C786.9 116.9 784 114 780.5 114Z" stroke="#3B6B7D" stroke-width="10" stroke-miterlimit="10" stroke-linecap="round" stroke-linejoin="round"/>
<path d="M677.7 91.3L720.7 48.3" stroke="#3B6B7D" stroke-width="6" stroke-miterlimit="10" stroke-linecap="round" stroke-linejoin="round"/>
<path d="M731.3 78.8L770.1 40.1" stroke="#3B6B7D" stroke-width="6" stroke-miterlimit="10" stroke-linecap="round" stroke-linejoin="round"/>
<path d="M690 120.2L717 93.2" stroke="#3B6B7D" stroke-width="6" stroke-miterlimit="10" stroke-linecap="round" stroke-linejoin="round"/>
<path d="M407.1 19.1H556.7" stroke="#3B6B7D" stroke-width="12" stroke-miterlimit="10" stroke-linecap="round" stroke-linejoin="round"/>
<path d="M407.1 5H380.1V33.2H407.1V5Z" fill="#87D1E8"/>
<path d="M407.1 5H380.1V33.2H407.1V5Z" stroke="#3B6B7D" stroke-width="10" stroke-miterlimit="10" stroke-linecap="round" stroke-linejoin="round"/>
<path d="M583.699 5H556.699V33.2H583.699V5Z" fill="#87D1E8"/>
<path d="M583.699 5H556.699V33.2H583.699V5Z" stroke="#3B6B7D" stroke-width="10" stroke-miterlimit="10" stroke-linecap="round" stroke-linejoin="round"/>
<path d="M542 5H424V176H542V5Z" fill="white"/>
<path opacity="0.84" d="M542 5H424V23.5H542V5Z" fill="#D8D8D8"/>
<path d="M542 5H424V176H542V5Z" stroke="#3B6B7D" stroke-width="10" stroke-miterlimit="10" stroke-linecap="round" stroke-linejoin="round"/>
<path d="M533.5 190V176" stroke="#3B6B7D" stroke-width="8" stroke-miterlimit="10" stroke-linecap="round" stroke-linejoin="round"/>
<path d="M519.5 190V176" stroke="#3B6B7D" stroke-width="8" stroke-miterlimit="10" stroke-linecap="round" stroke-linejoin="round"/>
<path d="M505.5 190V176" stroke="#3B6B7D" stroke-width="8" stroke-miterlimit="10" stroke-linecap="round" stroke-linejoin="round"/>
<path d="M491.5 190V176" stroke="#3B6B7D" stroke-width="8" stroke-miterlimit="10" stroke-linecap="round" stroke-linejoin="round"/>
<path d="M477.5 190V176" stroke="#3B6B7D" stroke-width="8" stroke-miterlimit="10" stroke-linecap="round" stroke-linejoin="round"/>
<path d="M463.5 190V176" stroke="#3B6B7D" stroke-width="8" stroke-miterlimit="10" stroke-linecap="round" stroke-linejoin="round"/>
<path d="M449.5 190V176" stroke="#3B6B7D" stroke-width="8" stroke-miterlimit="10" stroke-linecap="round" stroke-linejoin="round"/>
<path d="M435.5 190V176" stroke="#3B6B7D" stroke-width="8" stroke-miterlimit="10" stroke-linecap="round" stroke-linejoin="round"/>
<path d="M424 144.7H542" stroke="#3B6B7D" stroke-width="10" stroke-miterlimit="10" stroke-linecap="round" stroke-linejoin="round"/>
<path d="M467 8.20001V109" stroke="#3B6B7D" stroke-width="6" stroke-miterlimit="10" stroke-linecap="round" stroke-linejoin="round"/>
<path d="M506.699 8.20001V73" stroke="#3B6B7D" stroke-width="6" stroke-miterlimit="10" stroke-linecap="round" stroke-linejoin="round"/>
</g>
<defs>
<clipPath id="clip0_305_119">
<rect width="906" height="561" fill="white"/>
</clipPath>
</defs>
</svg>
